SplineFontDB: 3.2
FontName: MagdalenaFranceschi
FullName: MagdalenaFranceschi
FamilyName: MagdalenaFranceschi
Weight: Book
Copyright: Copyright (c) 2023, Megi
Version: 001.000
ItalicAngle: 0
UnderlinePosition: -100
UnderlineWidth: 50
Ascent: 800
Descent: 200
InvalidEm: 0
sfntRevision: 0x00010000
LayerCount: 2
Layer: 0 1 "Stra+AX4A-nji" 1
Layer: 1 1 "Prednji" 0
XUID: [1021 898 1330944906 16616]
StyleMap: 0x0000
FSType: 0
OS2Version: 4
OS2_WeightWidthSlopeOnly: 0
OS2_UseTypoMetrics: 1
CreationTime: 1679157882
ModificationTime: 1679343536
PfmFamily: 17
TTFWeight: 400
TTFWidth: 5
LineGap: 90
VLineGap: 0
Panose: 2 0 5 3 0 0 0 0 0 0
OS2TypoAscent: 800
OS2TypoAOffset: 0
OS2TypoDescent: -200
OS2TypoDOffset: 0
OS2TypoLinegap: 90
OS2WinAscent: 1036
OS2WinAOffset: 0
OS2WinDescent: 254
OS2WinDOffset: 0
HheadAscent: 1036
HheadAOffset: 0
HheadDescent: -254
HheadDOffset: 0
OS2SubXSize: 650
OS2SubYSize: 700
OS2SubXOff: 0
OS2SubYOff: 140
OS2SupXSize: 650
OS2SupYSize: 700
OS2SupXOff: 0
OS2SupYOff: 480
OS2StrikeYSize: 49
OS2StrikeYPos: 258
OS2CapHeight: 807
OS2XHeight: 520
OS2Vendor: 'PfEd'
OS2CodePages: 00000001.00000000
OS2UnicodeRanges: 00000005.00000000.00000000.00000000
MarkAttachClasses: 1
DEI: 91125
ShortTable: cvt  2
  33
  633
EndShort
ShortTable: maxp 16
  1
  0
  28
  154
  4
  0
  0
  2
  0
  1
  1
  0
  64
  46
  0
  0
EndShort
LangName: 1033 "" "" "Regular" "FontForge 2.0 : MagdalenaFranceschi : 20-3-2023" "" "Version 001.000"
GaspTable: 1 65535 2 0
Encoding: UnicodeBmp
UnicodeInterp: none
NameList: AGL For New Fonts
DisplaySize: -48
AntiAlias: 1
FitToEm: 0
WinInfo: 38 38 13
BeginChars: 65539 28

StartChar: .notdef
Encoding: 65536 -1 0
Width: 364
GlyphClass: 1
Flags: W
LayerCount: 2
Fore
SplineSet
33 0 m 1,0,-1
 33 666 l 1,1,-1
 298 666 l 1,2,-1
 298 0 l 1,3,-1
 33 0 l 1,0,-1
66 33 m 1,4,-1
 265 33 l 1,5,-1
 265 633 l 1,6,-1
 66 633 l 1,7,-1
 66 33 l 1,4,-1
EndSplineSet
EndChar

StartChar: F
Encoding: 70 70 4
Width: 590
GlyphClass: 1
Flags: W
LayerCount: 2
Fore
SplineSet
154 0 m 1,0,1
 0 708 0 708 0 710 c 2,2,-1
 613 848 l 1,3,4
 699 560 699 560 701 558 c 0,5,6
 702 557 702 557 604.5 569.5 c 128,-1,7
 507 582 507 582 408.5 594 c 128,-1,8
 310 606 310 606 309 604 c 128,-1,9
 308 602 308 602 303.5 559 c 128,-1,10
 299 516 299 516 294.5 474 c 128,-1,11
 290 432 290 432 289 432 c 0,12,13
 287 432 287 432 338 440 c 128,-1,14
 389 448 389 448 438 454 c 128,-1,15
 487 460 487 460 485 456 c 0,16,17
 483 453 483 453 489 411 c 128,-1,18
 495 369 495 369 499 329 c 128,-1,19
 503 289 503 289 499 288 c 128,-1,20
 495 287 495 287 448.5 294 c 128,-1,21
 402 301 402 301 356 308.5 c 128,-1,22
 310 316 310 316 309 316 c 0,23,24
 307 316 307 316 301 158 c 128,-1,25
 295 0 295 0 294 0 c 2,26,-1
 154 0 l 1,0,1
EndSplineSet
EndChar

StartChar: M
Encoding: 77 77 5
Width: 700
GlyphClass: 1
Flags: W
LayerCount: 2
Fore
SplineSet
133 -2 m 1,0,1
 -81 716 -81 716 -81 718 c 2,2,-1
 259 766 l 1,3,4
 387 526 387 526 387 522 c 0,5,6
 387 520 387 520 419 575 c 128,-1,7
 451 630 451 630 483.5 686 c 128,-1,8
 516 742 516 742 517 742 c 128,-1,9
 518 742 518 742 588 727.5 c 128,-1,10
 658 713 658 713 727.5 699 c 128,-1,11
 797 685 797 685 797 686 c 1,12,-1
 786 648 l 2,13,14
 774 611 774 611 755 550.5 c 128,-1,15
 736 490 736 490 713.5 416.5 c 128,-1,16
 691 343 691 343 668 269.5 c 128,-1,17
 645 196 645 196 626 135 c 128,-1,18
 607 74 607 74 594.5 36 c 128,-1,19
 582 -2 582 -2 581 -2 c 2,20,-1
 403 -2 l 2,21,22
 401 -2 401 -2 425 84.5 c 128,-1,23
 449 171 449 171 474.5 257.5 c 128,-1,24
 500 344 500 344 501 344 c 128,-1,25
 502 344 502 344 470.5 311 c 128,-1,26
 439 278 439 278 407 242.5 c 128,-1,27
 375 207 375 207 375 204 c 0,28,29
 375 200 375 200 327 267 c 128,-1,30
 279 334 279 334 231.5 403 c 128,-1,31
 184 472 184 472 185 472 c 2,32,-1
 311 -2 l 1,33,-1
 133 -2 l 1,0,1
EndSplineSet
EndChar

StartChar: a
Encoding: 97 97 6
Width: 638
GlyphClass: 1
Flags: W
LayerCount: 2
Fore
SplineSet
316 116 m 1,0,1
 360 216 360 216 361 216 c 1,2,-1
 334 234 l 2,3,4
 307 252 307 252 279 270.5 c 128,-1,5
 251 289 251 289 251 290 c 128,-1,6
 251 291 251 291 227.5 273 c 128,-1,7
 204 255 204 255 181 236.5 c 128,-1,8
 158 218 158 218 159 218 c 128,-1,9
 160 218 160 218 190.5 154 c 128,-1,10
 221 90 221 90 222 90 c 2,11,-1
 316 116 l 1,0,1
76 0 m 1,12,13
 71 22 71 22 62.5 57.5 c 128,-1,14
 54 93 54 93 36.5 168.5 c 128,-1,15
 19 244 19 244 7.5 293 c 128,-1,16
 -4 342 -4 342 -4 340 c 0,17,18
 -4 337 -4 337 68 367 c 128,-1,19
 140 397 140 397 213 427.5 c 128,-1,20
 286 458 286 458 288 456 c 0,21,22
 291 453 291 453 375 388 c 128,-1,23
 459 323 459 323 462 322 c 0,24,25
 464 321 464 321 460.5 358.5 c 128,-1,26
 457 396 457 396 452 434 c 2,27,-1
 448 472 l 1,28,29
 644 472 644 472 652 466 c 0,30,31
 655 463 655 463 633.5 388.5 c 128,-1,32
 612 314 612 314 589 237.5 c 128,-1,33
 566 161 566 161 568 156 c 0,34,35
 569 152 569 152 578 112 c 128,-1,36
 587 72 587 72 595.5 36 c 128,-1,37
 604 0 604 0 606 0 c 1,38,-1
 606 0 l 1,39,-1
 606 0 l 1,40,-1
 606 0 l 1,41,-1
 605 0 l 1,42,-1
 605 0 l 1,43,-1
 604 0 l 1,44,-1
 604 0 l 1,45,-1
 603 0 l 1,46,-1
 602 0 l 1,47,-1
 601 0 l 1,48,-1
 600 0 l 1,49,-1
 599 0 l 1,50,-1
 598 0 l 1,51,-1
 597 0 l 1,52,-1
 596 0 l 1,53,-1
 595 0 l 1,54,-1
 594 0 l 1,55,-1
 593 0 l 1,56,-1
 592 0 l 1,57,-1
 591 0 l 1,58,-1
 590 0 l 1,59,-1
 589 0 l 1,60,-1
 588 0 l 1,61,-1
 587 0 l 1,62,-1
 586 0 l 1,63,-1
 585 0 l 1,64,-1
 584 0 l 1,65,-1
 583 0 l 1,66,-1
 582 0 l 1,67,-1
 581 0 l 1,68,-1
 580 0 l 1,69,-1
 579 0 l 1,70,-1
 578 0 l 1,71,-1
 577 0 l 1,72,-1
 575 0 l 1,73,-1
 574 0 l 1,74,-1
 573 0 l 1,75,-1
 572 0 l 1,76,-1
 571 0 l 1,77,-1
 570 0 l 1,78,-1
 568 0 l 1,79,-1
 567 0 l 1,80,-1
 566 0 l 1,81,-1
 565 0 l 1,82,-1
 563 0 l 1,83,-1
 562 0 l 1,84,-1
 561 0 l 1,85,-1
 560 0 l 1,86,-1
 558 0 l 1,87,-1
 557 0 l 1,88,-1
 556 0 l 1,89,-1
 554 0 l 1,90,-1
 553 0 l 1,91,-1
 551 0 l 1,92,-1
 550 0 l 1,93,-1
 549 0 l 1,94,-1
 547 0 l 1,95,-1
 546 0 l 1,96,-1
 544 0 l 1,97,-1
 543 0 l 1,98,-1
 541 0 l 1,99,-1
 540 0 l 1,100,-1
 538 0 l 1,101,-1
 537 0 l 1,102,-1
 535 0 l 1,103,-1
 534 0 l 1,104,-1
 532 0 l 1,105,-1
 531 0 l 1,106,-1
 529 0 l 1,107,-1
 528 0 l 1,108,-1
 526 0 l 1,109,-1
 525 0 l 1,110,-1
 523 0 l 1,111,-1
 521 0 l 1,112,-1
 520 0 l 1,113,-1
 518 0 l 1,114,-1
 516 0 l 1,115,-1
 515 0 l 1,116,-1
 513 0 l 1,117,-1
 511 0 l 1,118,-1
 510 0 l 1,119,-1
 508 0 l 1,120,-1
 506 0 l 1,121,-1
 505 0 l 1,122,-1
 503 0 l 1,123,-1
 501 0 l 1,124,-1
 499 0 l 1,125,-1
 498 0 l 1,126,-1
 496 0 l 1,127,-1
 494 0 l 1,128,-1
 492 0 l 1,129,-1
 490 0 l 1,130,-1
 489 0 l 1,131,-1
 487 0 l 1,132,-1
 485 0 l 1,133,-1
 483 0 l 1,134,-1
 481 0 l 1,135,-1
 479 0 l 1,136,-1
 477 0 l 1,137,-1
 476 0 l 1,138,-1
 474 0 l 1,139,-1
 472 0 l 1,140,-1
 470 0 l 1,141,-1
 460 0 l 1,142,143
 462 5 462 5 460.5 34.5 c 128,-1,144
 459 64 459 64 456 98 c 2,145,-1
 454 132 l 1,146,147
 408 2 408 2 408 0 c 1,148,-1
 76 0 l 1,12,13
EndSplineSet
EndChar

StartChar: c
Encoding: 99 99 7
Width: 622
GlyphClass: 1
Flags: W
LayerCount: 2
Fore
SplineSet
0 282 m 1,0,1
 15 295 15 295 39 316.5 c 128,-1,2
 63 338 63 338 113.5 383.5 c 128,-1,3
 164 429 164 429 198 459 c 128,-1,4
 232 489 232 489 232 488 c 128,-1,5
 232 487 232 487 298 497.5 c 128,-1,6
 364 508 364 508 430.5 519.5 c 128,-1,7
 497 531 497 531 498 532 c 128,-1,8
 499 533 499 533 534.5 481 c 128,-1,9
 570 429 570 429 605.5 376.5 c 128,-1,10
 641 324 641 324 642 324 c 128,-1,11
 643 324 643 324 601.5 300 c 128,-1,12
 560 276 560 276 517.5 252 c 128,-1,13
 475 228 475 228 472 228 c 128,-1,14
 469 228 469 228 453 271.5 c 128,-1,15
 437 315 437 315 422 359 c 128,-1,16
 407 403 407 403 406 404 c 0,17,18
 404 406 404 406 330.5 383.5 c 128,-1,19
 257 361 257 361 254 358 c 2,20,-1
 186 218 l 1,21,-1
 332 112 l 1,22,-1
 414 206 l 1,23,-1
 610 122 l 1,24,25
 593 112 593 112 566 96.5 c 128,-1,26
 539 81 539 81 481 48 c 128,-1,27
 423 15 423 15 384 -6 c 128,-1,28
 345 -27 345 -27 344 -26 c 0,29,30
 342 -22 342 -22 74 42 c 1,31,-1
 0 282 l 1,0,1
EndSplineSet
EndChar

StartChar: d
Encoding: 100 100 8
Width: 578
GlyphClass: 1
Flags: W
LayerCount: 2
Fore
SplineSet
285 116 m 1,0,1
 329 216 329 216 330 216 c 1,2,-1
 303 234 l 2,3,4
 276 252 276 252 248 270.5 c 128,-1,5
 220 289 220 289 220 290 c 128,-1,6
 220 291 220 291 196.5 273 c 128,-1,7
 173 255 173 255 150 236.5 c 128,-1,8
 127 218 127 218 128 218 c 128,-1,9
 129 218 129 218 159.5 154 c 128,-1,10
 190 90 190 90 191 90 c 2,11,-1
 285 116 l 1,0,1
45 0 m 1,12,13
 40 22 40 22 31.5 57.5 c 128,-1,14
 23 93 23 93 5.5 168.5 c 128,-1,15
 -12 244 -12 244 -23.5 293 c 128,-1,16
 -35 342 -35 342 -35 340 c 0,17,18
 -35 337 -35 337 37 367 c 128,-1,19
 109 397 109 397 182 427.5 c 128,-1,20
 255 458 255 458 257 456 c 0,21,22
 260 453 260 453 344 388 c 128,-1,23
 428 323 428 323 431 322 c 0,24,25
 433 321 433 321 425.5 424 c 128,-1,26
 418 527 418 527 410 630 c 2,27,-1
 401 734 l 1,28,-1
 571 790 l 1,29,30
 575 787 575 787 555 474 c 128,-1,31
 535 161 535 161 537 156 c 0,32,33
 538 152 538 152 547 112 c 128,-1,34
 556 72 556 72 564.5 36 c 128,-1,35
 573 0 573 0 575 0 c 1,36,-1
 575 0 l 1,37,-1
 575 0 l 1,38,-1
 575 0 l 1,39,-1
 574 0 l 1,40,-1
 574 0 l 1,41,-1
 573 0 l 1,42,-1
 573 0 l 1,43,-1
 572 0 l 1,44,-1
 571 0 l 1,45,-1
 570 0 l 1,46,-1
 569 0 l 1,47,-1
 568 0 l 1,48,-1
 567 0 l 1,49,-1
 566 0 l 1,50,-1
 565 0 l 1,51,-1
 564 0 l 1,52,-1
 563 0 l 1,53,-1
 562 0 l 1,54,-1
 561 0 l 1,55,-1
 560 0 l 1,56,-1
 559 0 l 1,57,-1
 558 0 l 1,58,-1
 557 0 l 1,59,-1
 556 0 l 1,60,-1
 555 0 l 1,61,-1
 554 0 l 1,62,-1
 553 0 l 1,63,-1
 552 0 l 1,64,-1
 551 0 l 1,65,-1
 550 0 l 1,66,-1
 549 0 l 1,67,-1
 548 0 l 1,68,-1
 547 0 l 1,69,-1
 546 0 l 1,70,-1
 544 0 l 1,71,-1
 543 0 l 1,72,-1
 542 0 l 1,73,-1
 541 0 l 1,74,-1
 540 0 l 1,75,-1
 539 0 l 1,76,-1
 537 0 l 1,77,-1
 536 0 l 1,78,-1
 535 0 l 1,79,-1
 534 0 l 1,80,-1
 532 0 l 1,81,-1
 531 0 l 1,82,-1
 530 0 l 1,83,-1
 529 0 l 1,84,-1
 527 0 l 1,85,-1
 526 0 l 1,86,-1
 525 0 l 1,87,-1
 523 0 l 1,88,-1
 522 0 l 1,89,-1
 520 0 l 1,90,-1
 519 0 l 1,91,-1
 518 0 l 1,92,-1
 516 0 l 1,93,-1
 515 0 l 1,94,-1
 513 0 l 1,95,-1
 512 0 l 1,96,-1
 510 0 l 1,97,-1
 509 0 l 1,98,-1
 507 0 l 1,99,-1
 506 0 l 1,100,-1
 504 0 l 1,101,-1
 503 0 l 1,102,-1
 501 0 l 1,103,-1
 500 0 l 1,104,-1
 498 0 l 1,105,-1
 497 0 l 1,106,-1
 495 0 l 1,107,-1
 494 0 l 1,108,-1
 492 0 l 1,109,-1
 490 0 l 1,110,-1
 489 0 l 1,111,-1
 487 0 l 1,112,-1
 485 0 l 1,113,-1
 484 0 l 1,114,-1
 482 0 l 1,115,-1
 480 0 l 1,116,-1
 479 0 l 1,117,-1
 477 0 l 1,118,-1
 475 0 l 1,119,-1
 474 0 l 1,120,-1
 472 0 l 1,121,-1
 470 0 l 1,122,-1
 468 0 l 1,123,-1
 467 0 l 1,124,-1
 465 0 l 1,125,-1
 463 0 l 1,126,-1
 461 0 l 1,127,-1
 459 0 l 1,128,-1
 458 0 l 1,129,-1
 456 0 l 1,130,-1
 454 0 l 1,131,-1
 452 0 l 1,132,-1
 450 0 l 1,133,-1
 448 0 l 1,134,-1
 446 0 l 1,135,-1
 445 0 l 1,136,-1
 443 0 l 1,137,-1
 441 0 l 1,138,-1
 439 0 l 1,139,-1
 429 0 l 1,140,141
 431 5 431 5 429.5 34.5 c 128,-1,142
 428 64 428 64 426 98 c 2,143,-1
 423 132 l 1,144,145
 377 2 377 2 377 0 c 1,146,-1
 45 0 l 1,12,13
EndSplineSet
EndChar

StartChar: e
Encoding: 101 101 9
Width: 626
GlyphClass: 1
Flags: W
LayerCount: 2
Fore
SplineSet
232 297 m 1,0,1
 378 250 378 250 378 246 c 0,2,3
 378 245 378 245 445 302 c 0,4,5
 470 323 470 323 470 320 c 0,6,7
 470 318 470 318 459 334 c 0,8,9
 451 345 451 345 431 377 c 2,10,-1
 401 422 l 2,11,12
 400 422 400 422 336 406 c 128,-1,13
 272 390 272 390 270 389 c 2,14,-1
 232 297 l 1,0,1
0 302 m 1,15,-1
 186 474 l 1,16,17
 492 508 492 508 492 510 c 0,18,19
 492 511 492 511 522.5 440.5 c 128,-1,20
 553 370 553 370 582 299 c 128,-1,21
 611 228 611 228 608 226 c 0,22,23
 604 223 604 223 457.5 204.5 c 128,-1,24
 311 186 311 186 306 188 c 0,25,26
 303 189 303 189 263.5 212.5 c 128,-1,27
 224 236 224 236 222 236 c 128,-1,28
 220 236 220 236 217.5 216 c 128,-1,29
 215 196 215 196 212.5 174 c 128,-1,30
 210 152 210 152 208 150 c 0,31,32
 206 147 206 147 246 128.5 c 128,-1,33
 286 110 286 110 327 92.5 c 128,-1,34
 368 75 368 75 368 76 c 128,-1,35
 368 77 368 77 423 104.5 c 128,-1,36
 478 132 478 132 532.5 159 c 128,-1,37
 587 186 587 186 586 186 c 128,-1,38
 585 186 585 186 599.5 169.5 c 128,-1,39
 614 153 614 153 631.5 134.5 c 128,-1,40
 649 116 649 116 654 112 c 128,-1,41
 659 108 659 108 624.5 80 c 128,-1,42
 590 52 590 52 553 26 c 128,-1,43
 516 0 516 0 514 0 c 2,44,-1
 204 0 l 1,45,-1
 110 82 l 2,46,47
 16 164 16 164 10 164 c 0,48,49
 6 164 6 164 3.5 198.5 c 128,-1,50
 1 233 1 233 0 268 c 2,51,-1
 0 302 l 1,15,-1
EndSplineSet
EndChar

StartChar: g
Encoding: 103 103 10
Width: 636
GlyphClass: 1
Flags: W
LayerCount: 2
Fore
SplineSet
265 -193 m 1024,0,-1
594 0 m 1024,1,-1
304 116 m 1,2,3
 348 216 348 216 349 216 c 1,4,-1
 322 234 l 2,5,6
 295 252 295 252 267 270.5 c 128,-1,7
 239 289 239 289 239 290 c 128,-1,8
 239 291 239 291 215.5 273 c 128,-1,9
 192 255 192 255 169 236.5 c 128,-1,10
 146 218 146 218 147 218 c 128,-1,11
 148 218 148 218 178.5 154 c 128,-1,12
 209 90 209 90 210 90 c 2,13,-1
 304 116 l 1,2,3
64 0 m 1,14,15
 59 22 59 22 50.5 57.5 c 128,-1,16
 42 93 42 93 24.5 168.5 c 128,-1,17
 7 244 7 244 -4.5 293 c 128,-1,18
 -16 342 -16 342 -16 340 c 0,19,20
 -16 337 -16 337 56 367 c 128,-1,21
 128 397 128 397 201 427.5 c 128,-1,22
 274 458 274 458 276 456 c 0,23,24
 279 453 279 453 363 388 c 128,-1,25
 447 323 447 323 450 322 c 0,26,27
 452 321 452 321 448.5 358.5 c 128,-1,28
 445 396 445 396 440 434 c 2,29,-1
 436 472 l 1,30,31
 632 472 632 472 640 466 c 0,32,33
 643 463 643 463 621.5 388.5 c 128,-1,34
 600 314 600 314 577 237.5 c 128,-1,35
 554 161 554 161 556 156 c 0,36,37
 557 152 557 152 566 112 c 128,-1,38
 575 72 575 72 583.5 36 c 128,-1,39
 592 0 592 0 594 0 c 128,-1,40
 596 0 596 0 559 -63.5 c 128,-1,41
 522 -127 522 -127 485 -190.5 c 128,-1,42
 448 -254 448 -254 450 -254 c 1,43,-1
 404 -239 l 2,44,45
 358 -224 358 -224 312 -208 c 2,46,-1
 265 -193 l 1,47,-1
 140 -55 l 1,48,49
 158 -54 158 -54 184.5 -52.5 c 128,-1,50
 211 -51 211 -51 239 -48.5 c 128,-1,51
 267 -46 267 -46 297 -44 c 128,-1,52
 327 -42 327 -42 353 -39.5 c 128,-1,53
 379 -37 379 -37 399.5 -35.5 c 128,-1,54
 420 -34 420 -34 431.5 -33 c 128,-1,55
 443 -32 443 -32 442 -32 c 1,56,-1
 442 132 l 1,57,58
 396 2 396 2 396 0 c 1,59,-1
 64 0 l 1,14,15
EndSplineSet
EndChar

StartChar: h
Encoding: 104 104 11
Width: 556
GlyphClass: 1
Flags: W
LayerCount: 2
Fore
SplineSet
60 0 m 1,0,1
 58 21 58 21 55 57 c 128,-1,2
 52 93 52 93 44.5 190.5 c 128,-1,3
 37 288 37 288 30 373.5 c 128,-1,4
 23 459 23 459 16 547.5 c 128,-1,5
 9 636 9 636 4.5 688.5 c 128,-1,6
 0 741 0 741 0 740 c 0,7,8
 0 738 0 738 50.5 752.5 c 128,-1,9
 101 767 101 767 152.5 782 c 128,-1,10
 204 797 204 797 206 796 c 128,-1,11
 208 795 208 795 192.5 681.5 c 128,-1,12
 177 568 177 568 160 454 c 2,13,-1
 144 340 l 2,14,15
 144 339 144 339 169.5 365.5 c 128,-1,16
 195 392 195 392 220 419 c 128,-1,17
 245 446 245 446 244 446 c 0,18,19
 241 446 241 446 302.5 448 c 128,-1,20
 364 450 364 450 424.5 451.5 c 128,-1,21
 485 453 485 453 486 452 c 0,22,23
 491 447 491 447 536 384 c 128,-1,24
 581 321 581 321 580 316 c 0,25,26
 579 313 579 313 564 233.5 c 128,-1,27
 549 154 549 154 534 77 c 128,-1,28
 519 0 519 0 518 0 c 0,29,30
 511 0 511 0 480 0 c 128,-1,31
 449 0 449 0 411 0 c 128,-1,32
 373 0 373 0 370 0 c 0,33,34
 366 0 366 0 391 65 c 128,-1,35
 416 130 416 130 442.5 195.5 c 128,-1,36
 469 261 469 261 468 262 c 2,37,38
 468 262 468 262 448.5 287 c 128,-1,39
 429 312 429 312 410 336 c 128,-1,40
 391 360 391 360 388 360 c 0,41,42
 384 360 384 360 329 341 c 128,-1,43
 274 322 274 322 270 320 c 0,44,45
 268 319 268 319 243.5 282 c 128,-1,46
 219 245 219 245 195.5 209 c 128,-1,47
 172 173 172 173 172 174 c 128,-1,48
 172 175 172 175 191 137 c 128,-1,49
 210 99 210 99 231 56 c 128,-1,50
 252 13 252 13 258 0 c 1,51,-1
 208 0 l 2,52,53
 159 0 159 0 109.5 0 c 128,-1,54
 60 0 60 0 60 0 c 1,0,1
EndSplineSet
EndChar

StartChar: i
Encoding: 105 105 12
Width: 258
GlyphClass: 1
Flags: W
LayerCount: 2
Fore
SplineSet
62 525 m 1,0,1
 59 533 59 533 54.5 546 c 128,-1,2
 50 559 50 559 41 586.5 c 128,-1,3
 32 614 32 614 26.5 632.5 c 128,-1,4
 21 651 21 651 22 651 c 0,5,6
 25 651 25 651 71.5 687.5 c 128,-1,7
 118 724 118 724 118 727 c 0,8,9
 118 729 118 729 153 703.5 c 128,-1,10
 188 678 188 678 223 651 c 128,-1,11
 258 624 258 624 258 623 c 0,12,13
 258 621 258 621 221.5 553 c 128,-1,14
 185 485 185 485 184 485 c 2,15,-1
 62 525 l 1,0,1
104 -1 m 1,16,17
 99 25 99 25 90.5 67 c 128,-1,18
 82 109 82 109 64 197.5 c 128,-1,19
 46 286 46 286 34 345 c 128,-1,20
 22 404 22 404 22 403 c 128,-1,21
 22 402 22 402 79 412 c 128,-1,22
 136 422 136 422 193 432 c 128,-1,23
 250 442 250 442 250 441 c 128,-1,24
 250 440 250 440 231 328.5 c 128,-1,25
 212 217 212 217 193 106.5 c 128,-1,26
 174 -4 174 -4 174 -1 c 0,27,28
 174 4 174 4 139 2 c 2,29,-1
 104 -1 l 1,16,17
EndSplineSet
EndChar

StartChar: l
Encoding: 108 108 14
Width: 348
GlyphClass: 1
Flags: W
LayerCount: 2
Fore
SplineSet
0 700 m 1,0,1
 12 707 12 707 31 718 c 128,-1,2
 50 729 50 729 90 752 c 128,-1,3
 130 775 130 775 157 790 c 128,-1,4
 184 805 184 805 184 804 c 0,5,6
 184 792 184 792 169.5 451 c 128,-1,7
 155 110 155 110 152 106 c 0,8,9
 150 103 150 103 231 133 c 0,10,11
 257 142 257 142 307 161 c 2,12,-1
 354 178 l 1,13,14
 345 173 345 173 350 0 c 1,15,16
 350 2 350 2 214 0 c 128,-1,17
 78 -2 78 -2 78 0 c 2,18,-1
 22 506 l 1,19,-1
 0 700 l 1,0,1
EndSplineSet
EndChar

StartChar: n
Encoding: 110 110 15
Width: 540
GlyphClass: 1
Flags: W
LayerCount: 2
Fore
SplineSet
80 1 m 1,0,1
 76 34 76 34 69.5 87.5 c 128,-1,2
 63 141 63 141 49.5 254.5 c 128,-1,3
 36 368 36 368 27 443 c 128,-1,4
 18 518 18 518 18 517 c 128,-1,5
 18 516 18 516 52.5 527 c 128,-1,6
 87 538 87 538 121.5 548.5 c 128,-1,7
 156 559 156 559 156 557 c 0,8,9
 156 544 156 544 153.5 482 c 128,-1,10
 151 420 151 420 148 419 c 1,11,-1
 276 471 l 2,12,13
 294 479 294 479 294 481 c 0,14,15
 294 484 294 484 359 458.5 c 128,-1,16
 424 433 424 433 489.5 406 c 128,-1,17
 555 379 555 379 555 378 c 0,18,19
 555 376 555 376 514 188.5 c 128,-1,20
 473 1 473 1 472 1 c 2,21,-1
 352 1 l 2,22,23
 351 1 351 1 369.5 63 c 128,-1,24
 388 125 388 125 406.5 187.5 c 128,-1,25
 425 250 425 250 424 250 c 128,-1,26
 423 250 423 250 386.5 268.5 c 128,-1,27
 350 287 350 287 313.5 305 c 128,-1,28
 277 323 277 323 276 321 c 2,29,-1
 184 187 l 1,30,-1
 244 1 l 1,31,-1
 80 1 l 1,0,1
EndSplineSet
EndChar

StartChar: r
Encoding: 114 114 16
Width: 520
GlyphClass: 1
Flags: W
LayerCount: 2
Fore
SplineSet
78 0 m 1,0,1
 72 27 72 27 62 71.5 c 128,-1,2
 52 116 52 116 30.5 210.5 c 128,-1,3
 9 305 9 305 -5 367.5 c 128,-1,4
 -19 430 -19 430 -18 430 c 128,-1,5
 -17 430 -17 430 18 452.5 c 128,-1,6
 53 475 53 475 87.5 497 c 128,-1,7
 122 519 122 519 122 518 c 2,8,-1
 141 462 l 2,9,10
 160 407 160 407 160 402 c 0,11,12
 160 398 160 398 204.5 424 c 128,-1,13
 249 450 249 450 293.5 477.5 c 128,-1,14
 338 505 338 505 338 506 c 128,-1,15
 338 507 338 507 388.5 466 c 128,-1,16
 439 425 439 425 489.5 382.5 c 128,-1,17
 540 340 540 340 540 338 c 128,-1,18
 540 336 540 336 483 278.5 c 128,-1,19
 426 221 426 221 424 216 c 0,20,21
 423 213 423 213 409 227.5 c 128,-1,22
 395 242 395 242 375.5 264.5 c 128,-1,23
 356 287 356 287 337 310 c 128,-1,24
 318 333 318 333 304.5 348.5 c 128,-1,25
 291 364 291 364 290 362 c 0,26,27
 289 359 289 359 257.5 337.5 c 128,-1,28
 226 316 226 316 195.5 296 c 128,-1,29
 165 276 165 276 166 276 c 128,-1,30
 167 276 167 276 192 206.5 c 128,-1,31
 217 137 217 137 241.5 68 c 128,-1,32
 266 -1 266 -1 266 0 c 1,33,-1
 78 0 l 1,0,1
EndSplineSet
EndChar

StartChar: s
Encoding: 115 115 17
Width: 498
GlyphClass: 1
Flags: W
LayerCount: 2
Fore
SplineSet
0 354 m 1,0,1
 10 366 10 366 25.5 385 c 128,-1,2
 41 404 41 404 74.5 444 c 128,-1,3
 108 484 108 484 130.5 510.5 c 128,-1,4
 153 537 153 537 154 536 c 0,5,6
 156 534 156 534 261.5 533.5 c 128,-1,7
 367 533 367 533 370 534 c 0,8,9
 374 536 374 536 442.5 458.5 c 128,-1,10
 511 381 511 381 508 374 c 0,11,12
 505 368 505 368 457 328.5 c 128,-1,13
 409 289 409 289 404 286 c 0,14,15
 402 285 402 285 381 299.5 c 128,-1,16
 360 314 360 314 340 329 c 2,17,-1
 320 344 l 1,18,-1
 360 424 l 1,19,-1
 164 410 l 1,20,-1
 222 282 l 1,21,-1
 324 284 l 1,22,-1
 430 208 l 1,23,24
 431 199 431 199 433.5 184.5 c 128,-1,25
 436 170 436 170 440.5 139.5 c 128,-1,26
 445 109 445 109 448 89 c 128,-1,27
 451 69 451 69 450 70 c 128,-1,28
 449 71 449 71 415.5 48.5 c 128,-1,29
 382 26 382 26 349 3.5 c 128,-1,30
 316 -19 316 -19 316 -18 c 2,31,-1
 126 2 l 1,32,33
 118 9 118 9 104.5 21 c 128,-1,34
 91 33 91 33 62.5 58.5 c 128,-1,35
 34 84 34 84 17.5 101 c 128,-1,36
 1 118 1 118 4 118 c 0,37,38
 8 118 8 118 19 148.5 c 128,-1,39
 30 179 30 179 39.5 209.5 c 128,-1,40
 49 240 49 240 50 240 c 128,-1,41
 51 240 51 240 76.5 223 c 128,-1,42
 102 206 102 206 127.5 189.5 c 128,-1,43
 153 173 153 173 154 174 c 128,-1,44
 155 175 155 175 156 151 c 128,-1,45
 157 127 157 127 158 102 c 2,46,-1
 158 78 l 1,47,-1
 234 78 l 1,48,-1
 320 172 l 1,49,-1
 148 226 l 1,50,-1
 0 354 l 1,0,1
EndSplineSet
EndChar

StartChar: Scaron
Encoding: 352 352 18
Width: 732
GlyphClass: 1
Flags: W
LayerCount: 2
Fore
SplineSet
50 920 m 1,0,1
 55 927 55 927 62.5 939 c 128,-1,2
 70 951 70 951 86.5 976.5 c 128,-1,3
 103 1002 103 1002 114 1019 c 128,-1,4
 125 1036 125 1036 124 1036 c 128,-1,5
 123 1036 123 1036 169.5 1001.5 c 128,-1,6
 216 967 216 967 262.5 931 c 128,-1,7
 309 895 309 895 308 892 c 0,8,9
 306 887 306 887 442 1015 c 1,10,-1
 443 1016 l 1,11,-1
 444 1016 l 1,12,-1
 445 1018 l 1,13,-1
 458 1030 l 1,14,15
 456 1028 456 1028 536 995 c 0,16,17
 560 985 560 985 605 967 c 2,18,-1
 638 954 l 1,19,-1
 328 830 l 1,20,-1
 50 920 l 1,0,1
-32 550 m 1,21,-1
 92 798 l 1,22,23
 92 798 92 798 514 802 c 1,24,25
 513 801 513 801 568 762.5 c 128,-1,26
 623 724 623 724 677 685 c 128,-1,27
 731 646 731 646 728 644 c 0,28,29
 725 641 725 641 638 410 c 1,30,31
 639 413 639 413 577 439.5 c 128,-1,32
 515 466 515 466 452 491.5 c 128,-1,33
 389 517 389 517 386 516 c 128,-1,34
 383 515 383 515 423.5 548.5 c 128,-1,35
 464 582 464 582 505 614.5 c 128,-1,36
 546 647 546 647 546 644 c 128,-1,37
 546 641 546 641 483.5 657 c 128,-1,38
 421 673 421 673 356.5 690 c 128,-1,39
 292 707 292 707 290 706 c 0,40,41
 284 704 284 704 154 564 c 1,42,43
 161 558 161 558 172 547.5 c 128,-1,44
 183 537 183 537 207 515.5 c 128,-1,45
 231 494 231 494 246.5 479.5 c 128,-1,46
 262 465 262 465 262 466 c 128,-1,47
 262 467 262 467 287 460 c 128,-1,48
 312 453 312 453 337 445 c 128,-1,49
 362 437 362 437 362 436 c 256,50,51
 362 435 362 435 430 415 c 0,52,53
 586 370 586 370 586 366 c 0,54,55
 583 364 583 364 614.5 321 c 128,-1,56
 646 278 646 278 678.5 236 c 128,-1,57
 711 194 711 194 710 194 c 0,58,59
 708 194 708 194 677 145 c 128,-1,60
 646 96 646 96 616 47.5 c 128,-1,61
 586 -1 586 -1 586 0 c 128,-1,62
 586 1 586 1 506 -2.5 c 128,-1,63
 426 -6 426 -6 345 -10 c 2,64,-1
 264 -14 l 2,65,66
 261 -14 261 -14 129 60.5 c 128,-1,67
 -3 135 -3 135 -6 140 c 0,68,69
 -8 143 -8 143 12 193 c 128,-1,70
 32 243 32 243 52.5 290.5 c 128,-1,71
 73 338 73 338 72 338 c 128,-1,72
 71 338 71 338 120 311 c 128,-1,73
 169 284 169 284 216.5 256.5 c 128,-1,74
 264 229 264 229 260 228 c 128,-1,75
 256 227 256 227 242 198 c 128,-1,76
 228 169 228 169 215.5 140.5 c 128,-1,77
 203 112 203 112 204 112 c 2,78,-1
 366 50 l 1,79,80
 518 154 518 154 518 156 c 2,81,-1
 444 304 l 1,82,-1
 214 318 l 1,83,-1
 -32 550 l 1,21,-1
EndSplineSet
EndChar

StartChar: Zcaron
Encoding: 381 381 19
Width: 700
GlyphClass: 1
Flags: W
LayerCount: 2
Fore
SplineSet
97 882 m 1,0,1
 102 889 102 889 109.5 901 c 128,-1,2
 117 913 117 913 133.5 938.5 c 128,-1,3
 150 964 150 964 161 981 c 128,-1,4
 172 998 172 998 171 998 c 128,-1,5
 170 998 170 998 216.5 963.5 c 128,-1,6
 263 929 263 929 309.5 893 c 128,-1,7
 356 857 356 857 355 854 c 0,8,9
 353 849 353 849 489 977 c 1,10,-1
 490 978 l 1,11,-1
 491 978 l 1,12,-1
 492 980 l 1,13,-1
 505 992 l 1,14,15
 503 990 503 990 583 957 c 0,16,17
 607 947 607 947 652 929 c 2,18,-1
 685 916 l 1,19,-1
 375 792 l 1,20,-1
 97 882 l 1,0,1
34 442 m 1,21,22
 -26 676 -26 676 -32 684 c 0,23,24
 -35 688 -35 688 150 715 c 128,-1,25
 335 742 335 742 521.5 766 c 128,-1,26
 708 790 708 790 708 786 c 2,27,-1
 449 427 l 1,28,-1
 574 462 l 1,29,-1
 542 329 l 1,30,-1
 396 309 l 1,31,32
 390 300 390 300 381 286 c 128,-1,33
 372 272 372 272 352 242 c 128,-1,34
 332 212 332 212 319 192 c 2,35,-1
 306 172 l 1,36,37
 307 173 307 173 474 181.5 c 128,-1,38
 641 190 641 190 642 192 c 1,39,-1
 672 75 l 2,40,41
 673 69 673 69 676 57 c 2,42,-1
 690 0 l 1,43,44
 690 3 690 3 345 2 c 2,45,-1
 0 0 l 1,46,-1
 227 286 l 1,47,-1
 107 271 l 1,48,-1
 104 370 l 1,49,-1
 264 410 l 1,50,51
 268 417 268 417 275.5 429 c 128,-1,52
 283 441 283 441 299 466 c 128,-1,53
 315 491 315 491 325.5 507.5 c 128,-1,54
 336 524 336 524 336 524 c 1,55,-1
 34 442 l 1,21,22
EndSplineSet
EndChar

StartChar: scaron
Encoding: 353 353 20
Width: 498
GlyphClass: 1
Flags: W
LayerCount: 2
Fore
SplineSet
19 619 m 1,0,1
 25 627 25 627 34 639 c 128,-1,2
 43 651 43 651 62 677.5 c 128,-1,3
 81 704 81 704 93.5 721.5 c 128,-1,4
 106 739 106 739 105 739 c 128,-1,5
 104 739 104 739 132 712 c 128,-1,6
 160 685 160 685 188 656.5 c 128,-1,7
 216 628 216 628 215 625 c 0,8,9
 215 621 215 621 329 733 c 1,10,11
 327 731 327 731 410 705 c 0,12,13
 432 698 432 698 471 686 c 0,14,15
 499 677 499 677 498 677 c 2,16,-1
 235 563 l 1,17,-1
 19 619 l 1,0,1
0 354 m 1,18,19
 10 366 10 366 25.5 385 c 128,-1,20
 41 404 41 404 74.5 444 c 128,-1,21
 108 484 108 484 130.5 510.5 c 128,-1,22
 153 537 153 537 154 536 c 0,23,24
 156 534 156 534 261.5 533.5 c 128,-1,25
 367 533 367 533 370 534 c 0,26,27
 374 536 374 536 442.5 458.5 c 128,-1,28
 511 381 511 381 508 374 c 0,29,30
 505 368 505 368 457 328.5 c 128,-1,31
 409 289 409 289 404 286 c 0,32,33
 402 285 402 285 381 299.5 c 128,-1,34
 360 314 360 314 340 329 c 2,35,-1
 320 344 l 1,36,-1
 360 424 l 1,37,-1
 164 410 l 1,38,-1
 222 282 l 1,39,-1
 324 284 l 1,40,-1
 430 208 l 1,41,42
 431 199 431 199 433.5 184.5 c 128,-1,43
 436 170 436 170 440.5 139.5 c 128,-1,44
 445 109 445 109 448 89 c 128,-1,45
 451 69 451 69 450 70 c 128,-1,46
 449 71 449 71 415.5 48.5 c 128,-1,47
 382 26 382 26 349 3.5 c 128,-1,48
 316 -19 316 -19 316 -18 c 2,49,-1
 126 2 l 1,50,51
 118 9 118 9 104.5 21 c 128,-1,52
 91 33 91 33 62.5 58.5 c 128,-1,53
 34 84 34 84 17.5 101 c 128,-1,54
 1 118 1 118 4 118 c 0,55,56
 8 118 8 118 19 148.5 c 128,-1,57
 30 179 30 179 39.5 209.5 c 128,-1,58
 49 240 49 240 50 240 c 128,-1,59
 51 240 51 240 76.5 223 c 128,-1,60
 102 206 102 206 127.5 189.5 c 128,-1,61
 153 173 153 173 154 174 c 128,-1,62
 155 175 155 175 156 151 c 128,-1,63
 157 127 157 127 158 102 c 2,64,-1
 158 78 l 1,65,-1
 234 78 l 1,66,-1
 320 172 l 1,67,-1
 148 226 l 1,68,-1
 0 354 l 1,18,19
EndSplineSet
EndChar

StartChar: zcaron
Encoding: 382 382 21
Width: 602
GlyphClass: 1
Flags: W
LayerCount: 2
Fore
SplineSet
-4 664 m 1,0,1
 1 671 1 671 8.5 683 c 128,-1,2
 16 695 16 695 32.5 720.5 c 128,-1,3
 49 746 49 746 60 763 c 128,-1,4
 71 780 71 780 70 780 c 128,-1,5
 69 780 69 780 115.5 745.5 c 128,-1,6
 162 711 162 711 208.5 675 c 128,-1,7
 255 639 255 639 254 636 c 0,8,9
 252 631 252 631 388 759 c 1,10,-1
 389 760 l 1,11,-1
 390 760 l 1,12,-1
 391 762 l 1,13,-1
 404 774 l 1,14,15
 402 772 402 772 482 739 c 0,16,17
 506 729 506 729 551 711 c 2,18,-1
 584 698 l 1,19,-1
 274 574 l 1,20,-1
 -4 664 l 1,0,1
34 278 m 1,21,-1
 -22 454 l 1,22,23
 532 554 532 554 532 554 c 1,24,-1
 270 122 l 1,25,-1
 558 202 l 1,26,-1
 610 0 l 1,27,28
 2 -4 2 -4 0 0 c 0,29,30
 -1 2 -1 2 74 98 c 128,-1,31
 149 194 149 194 224 289 c 2,32,-1
 300 384 l 1,33,-1
 34 278 l 1,21,-1
EndSplineSet
EndChar

StartChar: Cacute
Encoding: 262 262 22
Width: 880
GlyphClass: 1
Flags: W
LayerCount: 2
Fore
SplineSet
359 849 m 0,0,1
 363 861 363 861 553 1005 c 1,2,-1
 739 939 l 1,3,-1
 441 819 l 1,4,5
 441 819 441 819 379 836 c 0,6,7
 357 844 357 844 359 849 c 0,0,1
0 504 m 1,8,-1
 280 742 l 1,9,-1
 642 800 l 1,10,-1
 882 477 l 1,11,12
 584 389 584 389 560 367 c 0,13,14
 558 365 558 365 557.5 389 c 128,-1,15
 557 413 557 413 557 448.5 c 128,-1,16
 557 484 557 484 556.5 519 c 128,-1,17
 556 554 556 554 555 579 c 128,-1,18
 554 604 554 604 552 603 c 2,19,-1
 280 571 l 1,20,-1
 182 321 l 1,21,-1
 400 139 l 1,22,23
 400 139 400 139 490 277 c 1,24,25
 488 275 488 275 576.5 257.5 c 128,-1,26
 665 240 665 240 756 222.5 c 128,-1,27
 847 205 847 205 848 204 c 0,28,29
 850 203 850 203 777.5 153.5 c 128,-1,30
 705 104 705 104 631.5 53.5 c 128,-1,31
 558 3 558 3 558 0 c 0,32,33
 542 -2 542 -2 443 0 c 128,-1,34
 344 2 344 2 229 6 c 2,35,-1
 114 10 l 1,36,-1
 0 504 l 1,8,-1
EndSplineSet
EndChar

StartChar: Ccaron
Encoding: 268 268 23
Width: 880
GlyphClass: 1
Flags: W
LayerCount: 2
Fore
SplineSet
97 882 m 1,0,1
 102 889 102 889 109.5 901 c 128,-1,2
 117 913 117 913 133.5 938.5 c 128,-1,3
 150 964 150 964 161 981 c 128,-1,4
 172 998 172 998 171 998 c 128,-1,5
 170 998 170 998 216.5 963.5 c 128,-1,6
 263 929 263 929 309.5 893 c 128,-1,7
 356 857 356 857 355 854 c 0,8,9
 353 849 353 849 489 977 c 1,10,-1
 490 978 l 1,11,-1
 491 978 l 1,12,-1
 492 980 l 1,13,-1
 505 992 l 1,14,15
 503 990 503 990 583 957 c 0,16,17
 607 947 607 947 652 929 c 2,18,-1
 685 916 l 1,19,-1
 375 792 l 1,20,-1
 97 882 l 1,0,1
0 504 m 1,21,-1
 280 742 l 1,22,-1
 642 800 l 1,23,-1
 882 477 l 1,24,25
 584 389 584 389 560 367 c 0,26,27
 558 365 558 365 557.5 389 c 128,-1,28
 557 413 557 413 557 448.5 c 128,-1,29
 557 484 557 484 556.5 519 c 128,-1,30
 556 554 556 554 555 579 c 128,-1,31
 554 604 554 604 552 603 c 2,32,-1
 280 571 l 1,33,-1
 182 321 l 1,34,-1
 400 139 l 1,35,36
 400 139 400 139 490 277 c 1,37,38
 488 275 488 275 576.5 257.5 c 128,-1,39
 665 240 665 240 756 222.5 c 128,-1,40
 847 205 847 205 848 204 c 0,41,42
 850 203 850 203 777.5 153.5 c 128,-1,43
 705 104 705 104 631.5 53.5 c 128,-1,44
 558 3 558 3 558 0 c 0,45,46
 542 -2 542 -2 443 0 c 128,-1,47
 344 2 344 2 229 6 c 2,48,-1
 114 10 l 1,49,-1
 0 504 l 1,21,-1
EndSplineSet
EndChar

StartChar: Dcroat
Encoding: 272 272 24
Width: 834
GlyphClass: 1
Flags: W
LayerCount: 2
Fore
SplineSet
236 295 m 1,0,1
 246 288 246 288 262.5 276.5 c 128,-1,2
 279 265 279 265 313.5 241.5 c 128,-1,3
 348 218 348 218 371 203 c 128,-1,4
 394 188 394 188 394 189 c 0,5,6
 394 191 394 191 449.5 204.5 c 128,-1,7
 505 218 505 218 560 230 c 2,8,-1
 616 243 l 1,9,-1
 620 517 l 2,10,11
 619 521 619 521 514 586 c 128,-1,12
 409 651 409 651 402 655 c 0,13,14
 399 656 399 656 331.5 623 c 128,-1,15
 264 590 264 590 248 581 c 0,16,17
 245 579 245 579 242.5 559.5 c 128,-1,18
 240 540 240 540 239 521 c 2,19,-1
 238 502 l 1,20,21
 232 502 232 502 237 502 c 0,22,23
 239 503 239 503 245 503 c 0,24,25
 286 507 286 507 333 512 c 1,26,-1
 366 389 l 1,27,-1
 237 384 l 1,28,-1
 236 295 l 1,0,1
172 1 m 1,29,-1
 129 363 l 1,30,-1
 0 333 l 1,31,-1
 -1 487 l 1,32,-1
 114 495 l 1,33,34
 112 510 112 510 109 534.5 c 128,-1,35
 106 559 106 559 99 611 c 128,-1,36
 92 663 92 663 87.5 697.5 c 128,-1,37
 83 732 83 732 82 731 c 0,38,39
 79 729 79 729 162.5 754 c 128,-1,40
 246 779 246 779 331 805 c 2,41,-1
 416 831 l 1,42,-1
 788 604 l 1,43,-1
 833 271 l 1,44,45
 654 1 654 1 650 1 c 2,46,-1
 172 1 l 1,29,-1
EndSplineSet
EndChar

StartChar: cacute
Encoding: 263 263 25
Width: 622
GlyphClass: 1
Flags: W
LayerCount: 2
Fore
SplineSet
222 602 m 0,0,1
 226 614 226 614 416 758 c 1,2,-1
 602 692 l 1,3,-1
 304 572 l 1,4,5
 304 572 304 572 242 589 c 0,6,7
 220 597 220 597 222 602 c 0,0,1
0 282 m 1,8,9
 15 295 15 295 39 316.5 c 128,-1,10
 63 338 63 338 113.5 383.5 c 128,-1,11
 164 429 164 429 198 459 c 128,-1,12
 232 489 232 489 232 488 c 128,-1,13
 232 487 232 487 298 497.5 c 128,-1,14
 364 508 364 508 430.5 519.5 c 128,-1,15
 497 531 497 531 498 532 c 128,-1,16
 499 533 499 533 534.5 481 c 128,-1,17
 570 429 570 429 605.5 376.5 c 128,-1,18
 641 324 641 324 642 324 c 128,-1,19
 643 324 643 324 601.5 300 c 128,-1,20
 560 276 560 276 517.5 252 c 128,-1,21
 475 228 475 228 472 228 c 128,-1,22
 469 228 469 228 453 271.5 c 128,-1,23
 437 315 437 315 422 359 c 128,-1,24
 407 403 407 403 406 404 c 0,25,26
 404 406 404 406 330.5 383.5 c 128,-1,27
 257 361 257 361 254 358 c 2,28,-1
 186 218 l 1,29,-1
 332 112 l 1,30,-1
 414 206 l 1,31,-1
 610 122 l 1,32,33
 593 112 593 112 566 96.5 c 128,-1,34
 539 81 539 81 481 48 c 128,-1,35
 423 15 423 15 384 -6 c 128,-1,36
 345 -27 345 -27 344 -26 c 0,37,38
 342 -22 342 -22 74 42 c 1,39,-1
 0 282 l 1,8,9
EndSplineSet
EndChar

StartChar: ccaron
Encoding: 269 269 26
Width: 629
GlyphClass: 1
Flags: W
LayerCount: 2
Fore
SplineSet
41 628 m 1,0,1
 46 635 46 635 53.5 647 c 128,-1,2
 61 659 61 659 77.5 684.5 c 128,-1,3
 94 710 94 710 105 727 c 128,-1,4
 116 744 116 744 115 744 c 128,-1,5
 114 744 114 744 160.5 709.5 c 128,-1,6
 207 675 207 675 253.5 639 c 128,-1,7
 300 603 300 603 299 600 c 0,8,9
 297 595 297 595 433 723 c 1,10,-1
 434 724 l 1,11,-1
 435 724 l 1,12,-1
 436 726 l 1,13,-1
 449 738 l 1,14,15
 447 736 447 736 527 703 c 0,16,17
 551 693 551 693 596 675 c 2,18,-1
 629 662 l 1,19,-1
 319 538 l 1,20,-1
 41 628 l 1,0,1
0 282 m 1,21,22
 15 295 15 295 39 316.5 c 128,-1,23
 63 338 63 338 113.5 383.5 c 128,-1,24
 164 429 164 429 198 459 c 128,-1,25
 232 489 232 489 232 488 c 128,-1,26
 232 487 232 487 298 497.5 c 128,-1,27
 364 508 364 508 430.5 519.5 c 128,-1,28
 497 531 497 531 498 532 c 128,-1,29
 499 533 499 533 534.5 481 c 128,-1,30
 570 429 570 429 605.5 376.5 c 128,-1,31
 641 324 641 324 642 324 c 128,-1,32
 643 324 643 324 601.5 300 c 128,-1,33
 560 276 560 276 517.5 252 c 128,-1,34
 475 228 475 228 472 228 c 128,-1,35
 469 228 469 228 453 271.5 c 128,-1,36
 437 315 437 315 422 359 c 128,-1,37
 407 403 407 403 406 404 c 0,38,39
 404 406 404 406 330.5 383.5 c 128,-1,40
 257 361 257 361 254 358 c 2,41,-1
 186 218 l 1,42,-1
 332 112 l 1,43,-1
 414 206 l 1,44,-1
 610 122 l 1,45,46
 593 112 593 112 566 96.5 c 128,-1,47
 539 81 539 81 481 48 c 128,-1,48
 423 15 423 15 384 -6 c 128,-1,49
 345 -27 345 -27 344 -26 c 0,50,51
 342 -22 342 -22 74 42 c 1,52,-1
 0 282 l 1,21,22
EndSplineSet
EndChar

StartChar: dcroat
Encoding: 273 273 27
Width: 613
GlyphClass: 1
Flags: W
LayerCount: 2
Fore
SplineSet
285 116 m 1,0,1
 329 216 329 216 330 216 c 1,2,-1
 303 234 l 2,3,4
 276 252 276 252 248 270.5 c 128,-1,5
 220 289 220 289 220 290 c 128,-1,6
 220 291 220 291 196.5 273 c 128,-1,7
 173 255 173 255 150 236.5 c 128,-1,8
 127 218 127 218 128 218 c 128,-1,9
 129 218 129 218 159.5 154 c 128,-1,10
 190 90 190 90 191 90 c 2,11,-1
 285 116 l 1,0,1
45 0 m 1,12,13
 40 22 40 22 31.5 57.5 c 128,-1,14
 23 93 23 93 5.5 168.5 c 128,-1,15
 -12 244 -12 244 -23.5 293 c 128,-1,16
 -35 342 -35 342 -35 340 c 0,17,18
 -35 337 -35 337 37 367 c 128,-1,19
 109 397 109 397 182 427.5 c 128,-1,20
 255 458 255 458 257 456 c 0,21,22
 260 453 260 453 344 388 c 128,-1,23
 428 323 428 323 431 322 c 1,24,-1
 427 375 l 2,25,26
 423 428 423 428 419 482 c 2,27,-1
 415 535 l 1,28,-1
 329 523 l 1,29,-1
 316 618 l 1,30,-1
 410 624 l 1,31,-1
 401 734 l 1,32,-1
 571 790 l 1,33,-1
 573 631 l 1,34,-1
 642 645 l 1,35,-1
 665 546 l 1,36,-1
 556 539 l 1,37,38
 556 539 556 539 537 156 c 0,39,40
 538 152 538 152 547 112 c 128,-1,41
 556 72 556 72 564.5 36 c 128,-1,42
 573 0 573 0 575 0 c 1,43,-1
 575 0 l 1,44,-1
 575 0 l 1,45,-1
 575 0 l 1,46,-1
 574 0 l 1,47,-1
 574 0 l 1,48,-1
 573 0 l 1,49,-1
 573 0 l 1,50,-1
 572 0 l 1,51,-1
 571 0 l 1,52,-1
 570 0 l 1,53,-1
 569 0 l 1,54,-1
 568 0 l 1,55,-1
 567 0 l 1,56,-1
 566 0 l 1,57,-1
 565 0 l 1,58,-1
 564 0 l 1,59,-1
 563 0 l 1,60,-1
 562 0 l 1,61,-1
 561 0 l 1,62,-1
 560 0 l 1,63,-1
 559 0 l 1,64,-1
 558 0 l 1,65,-1
 557 0 l 1,66,-1
 556 0 l 1,67,-1
 555 0 l 1,68,-1
 554 0 l 1,69,-1
 553 0 l 1,70,-1
 552 0 l 1,71,-1
 551 0 l 1,72,-1
 550 0 l 1,73,-1
 549 0 l 1,74,-1
 548 0 l 1,75,-1
 547 0 l 1,76,-1
 546 0 l 1,77,-1
 544 0 l 1,78,-1
 543 0 l 1,79,-1
 542 0 l 1,80,-1
 541 0 l 1,81,-1
 540 0 l 1,82,-1
 539 0 l 1,83,-1
 537 0 l 1,84,-1
 536 0 l 1,85,-1
 535 0 l 1,86,-1
 534 0 l 1,87,-1
 532 0 l 1,88,-1
 531 0 l 1,89,-1
 530 0 l 1,90,-1
 529 0 l 1,91,-1
 527 0 l 1,92,-1
 526 0 l 1,93,-1
 525 0 l 1,94,-1
 523 0 l 1,95,-1
 522 0 l 1,96,-1
 520 0 l 1,97,-1
 519 0 l 1,98,-1
 518 0 l 1,99,-1
 516 0 l 1,100,-1
 515 0 l 1,101,-1
 513 0 l 1,102,-1
 512 0 l 1,103,-1
 510 0 l 1,104,-1
 509 0 l 1,105,-1
 507 0 l 1,106,-1
 506 0 l 1,107,-1
 504 0 l 1,108,-1
 503 0 l 1,109,-1
 501 0 l 1,110,-1
 500 0 l 1,111,-1
 498 0 l 1,112,-1
 497 0 l 1,113,-1
 495 0 l 1,114,-1
 494 0 l 1,115,-1
 492 0 l 1,116,-1
 490 0 l 1,117,-1
 489 0 l 1,118,-1
 487 0 l 1,119,-1
 485 0 l 1,120,-1
 484 0 l 1,121,-1
 482 0 l 1,122,-1
 480 0 l 1,123,-1
 479 0 l 1,124,-1
 477 0 l 1,125,-1
 475 0 l 1,126,-1
 474 0 l 1,127,-1
 472 0 l 1,128,-1
 470 0 l 1,129,-1
 468 0 l 1,130,-1
 467 0 l 1,131,-1
 465 0 l 1,132,-1
 463 0 l 1,133,-1
 461 0 l 1,134,-1
 459 0 l 1,135,-1
 458 0 l 1,136,-1
 456 0 l 1,137,-1
 454 0 l 1,138,-1
 452 0 l 1,139,-1
 450 0 l 1,140,-1
 448 0 l 1,141,-1
 446 0 l 1,142,-1
 445 0 l 1,143,-1
 443 0 l 1,144,-1
 441 0 l 1,145,-1
 439 0 l 1,146,-1
 429 0 l 1,147,148
 431 5 431 5 429.5 34.5 c 128,-1,149
 428 64 428 64 426 98 c 2,150,-1
 423 132 l 1,151,152
 377 2 377 2 377 0 c 1,153,-1
 45 0 l 1,12,13
EndSplineSet
EndChar
